<svg id="svg" version="1.1" xmlns="http://www.w3.org/2000/svg" xmlns:xlink="http://www.w3.org/1999/xlink" width="400" height="400" viewBox="0, 0, 400,400"><g id="svgg"><path id="path0" d="M104.003 210.100 C 104.007 214.326,104.748 220.306,106.221 228.000 C 112.593 261.292,143.177 291.191,177.600 297.779 C 193.113 300.749,206.487 300.749,222.000 297.779 C 223.540 297.485,231.213 295.374,232.800 294.808 C 263.315 283.932,285.290 260.274,293.185 229.800 C 294.726 223.850,295.992 214.893,295.997 209.900 L 296.000 206.400 274.608 206.400 L 253.215 206.400 253.031 207.300 C 252.930 207.795,252.740 209.820,252.609 211.800 C 252.085 219.723,250.896 224.070,247.082 232.000 C 227.369 272.991,169.267 271.290,151.477 229.200 C 150.481 226.843,150.425 226.667,149.197 222.100 C 148.359 218.986,147.674 214.878,147.410 211.400 C 147.260 209.420,147.049 207.485,146.942 207.100 C 146.759 206.445,145.387 206.400,125.373 206.400 L 104.000 206.400 104.003 210.100 " stroke="none" fill="#fc641c" fill-rule="evenodd"></path><path id="path1" d="M225.200 100.611 C 211.511 102.892,200.614 108.186,191.048 117.200 C 181.659 126.049,174.958 138.615,172.816 151.391 C 172.164 155.280,172.061 158.773,171.939 181.000 L 171.800 206.200 193.300 206.303 L 214.800 206.407 214.805 182.903 C 214.810 154.546,214.858 154.264,220.552 148.577 C 229.282 139.859,243.354 141.586,250.218 152.219 C 252.492 155.743,252.833 157.601,253.088 167.900 L 253.318 177.200 274.659 177.200 L 296.000 177.200 295.993 167.100 C 295.984 155.356,295.320 150.289,292.790 142.677 C 284.289 117.092,259.969 99.746,233.035 100.056 C 230.376 100.086,226.850 100.336,225.200 100.611 M122.146 143.360 C 96.350 147.638,99.457 185.988,125.600 185.988 C 146.881 185.988,155.190 158.285,137.400 146.645 C 134.305 144.620,127.784 142.560,125.367 142.843 C 125.165 142.867,123.716 143.099,122.146 143.360 " stroke="none" fill="#0e1e4d" fill-rule="evenodd"></path><path id="path2" d="M0.000 200.000 L 0.000 400.000 200.000 400.000 L 400.000 400.000 400.000 200.000 L 400.000 0.000 200.000 0.000 L 0.000 0.000 0.000 200.000 M241.635 100.578 C 250.096 101.878,254.775 103.323,261.801 106.809 C 276.260 113.982,287.627 127.139,292.790 142.677 C 295.320 150.289,295.984 155.356,295.993 167.100 L 296.000 177.200 274.659 177.200 L 253.318 177.200 253.088 167.900 C 252.833 157.601,252.492 155.743,250.218 152.219 C 243.354 141.586,229.282 139.859,220.552 148.577 C 214.858 154.264,214.810 154.546,214.805 182.903 L 214.800 206.407 193.300 206.303 L 171.800 206.200 171.939 181.000 C 172.093 152.848,172.238 151.004,174.937 142.764 C 184.143 114.662,213.292 96.226,241.635 100.578 M128.367 143.228 C 146.785 146.224,153.563 168.183,139.911 180.633 C 130.152 189.533,114.079 187.191,107.272 175.876 C 98.585 161.436,107.630 144.925,125.367 142.843 C 125.569 142.819,126.919 142.993,128.367 143.228 M146.942 207.100 C 147.049 207.485,147.260 209.420,147.410 211.400 C 147.674 214.878,148.359 218.986,149.197 222.100 C 150.425 226.667,150.481 226.843,151.477 229.200 C 158.502 245.821,173.627 258.045,190.770 260.959 C 214.727 265.031,236.608 253.778,247.082 232.000 C 250.896 224.070,252.085 219.723,252.609 211.800 C 252.740 209.820,252.930 207.795,253.031 207.300 L 253.215 206.400 274.608 206.400 L 296.000 206.400 295.997 209.900 C 295.992 214.893,294.726 223.850,293.185 229.800 C 285.290 260.274,263.315 283.932,232.800 294.808 C 231.213 295.374,223.540 297.485,222.000 297.779 C 206.487 300.749,193.113 300.749,177.600 297.779 C 143.177 291.191,112.593 261.292,106.221 228.000 C 104.748 220.306,104.007 214.326,104.003 210.100 L 104.000 206.400 125.373 206.400 C 145.387 206.400,146.759 206.445,146.942 207.100 " stroke="none" fill="#fbfbfb" fill-rule="evenodd"></path></g></svg>