<svg id="svg" version="1.1" xmlns="http://www.w3.org/2000/svg" xmlns:xlink="http://www.w3.org/1999/xlink" width="400" height="450.9379128137385" viewBox="0, 0, 400,450.9379128137385"><g id="svgg"><path id="path0" d="M107.143 160.629 C 61.326 164.763,29.389 206.420,37.329 251.692 C 37.989 255.456,38.413 257.164,39.753 261.466 C 40.345 263.367,41.504 266.592,42.015 267.763 C 44.028 272.375,45.082 274.441,47.244 278.008 C 53.761 288.759,61.928 296.976,73.308 304.235 C 96.072 318.755,128.013 319.207,152.068 305.351 C 152.740 304.964,153.459 304.552,153.665 304.436 C 165.671 297.692,178.095 283.765,184.118 270.301 C 184.696 269.008,185.246 267.782,185.340 267.575 C 185.434 267.368,185.774 266.480,186.095 265.602 C 186.417 264.723,186.795 263.708,186.937 263.346 C 191.347 252.081,192.348 234.676,189.361 221.241 C 180.912 183.248,145.532 157.165,107.143 160.629 M281.861 160.465 C 271.732 161.324,263.169 163.322,256.015 166.495 C 241.485 172.939,230.214 182.332,221.680 195.113 C 205.368 219.541,204.567 252.705,219.687 277.574 C 220.076 278.214,220.641 279.145,220.941 279.642 C 221.461 280.502,224.582 284.953,224.803 285.150 C 224.861 285.202,225.551 286.048,226.336 287.030 C 229.013 290.380,231.713 293.166,235.814 296.809 C 240.813 301.250,249.030 306.384,255.639 309.197 C 256.414 309.527,257.218 309.876,257.425 309.974 C 258.136 310.308,262.126 311.690,263.910 312.219 C 284.441 318.304,306.680 315.810,324.718 305.400 C 327.580 303.749,333.059 300.083,333.647 299.427 C 333.698 299.369,334.078 299.073,334.490 298.768 C 336.356 297.388,339.245 294.749,342.014 291.893 C 346.755 287.003,349.761 283.038,353.629 276.574 C 366.503 255.057,367.245 225.801,355.499 202.820 C 352.973 197.876,348.726 191.368,346.111 188.434 C 345.924 188.223,345.146 187.335,344.382 186.460 C 329.214 169.075,303.992 158.589,281.861 160.465 M130.451 190.130 C 161.254 194.365,180.786 225.996,170.961 255.733 C 163.102 279.520,138.421 293.894,113.722 289.070 C 81.255 282.729,63.724 246.880,78.596 217.245 C 80.192 214.064,79.983 214.145,81.057 216.288 C 88.900 231.919,110.442 234.077,121.406 220.329 C 128.033 212.019,128.251 199.527,121.914 191.165 C 121.483 190.597,121.058 190.013,120.969 189.869 C 120.754 189.518,127.316 189.699,130.451 190.130 M281.861 189.947 C 317.561 193.696,337.940 233.025,320.387 264.299 C 300.520 299.697,249.288 298.121,231.385 261.560 C 224.405 247.307,224.987 228.636,232.828 215.257 L 233.314 214.427 234.105 216.016 C 243.619 235.128,271.173 233.459,278.453 213.330 C 281.084 206.057,279.677 196.946,275.006 191.002 C 274.630 190.523,274.258 190.026,274.180 189.897 C 273.975 189.557,278.423 189.586,281.861 189.947 M196.147 303.392 C 183.842 304.435,172.727 310.747,166.561 320.195 C 166.025 321.015,165.612 321.793,165.641 321.922 C 165.686 322.115,181.207 338.673,188.171 345.957 C 189.161 346.992,191.481 349.445,193.327 351.410 C 195.174 353.374,197.430 355.758,198.342 356.707 L 200.000 358.433 200.000 330.814 L 200.000 303.195 198.919 303.222 C 198.325 303.237,197.077 303.314,196.147 303.392 " stroke="none" fill="#f2f0e9" fill-rule="evenodd"></path><path id="path1" d="M233.073 323.449 L 232.425 324.154 233.130 323.506 C 233.786 322.903,233.921 322.744,233.777 322.744 C 233.746 322.744,233.429 323.062,233.073 323.449 M150.000 324.201 C 146.727 325.718,140.781 327.688,135.688 328.942 C 134.410 329.257,133.069 329.623,132.707 329.756 C 131.766 330.102,127.628 332.240,124.812 333.835 C 123.830 334.391,122.561 335.107,121.992 335.426 C 120.978 335.994,119.995 336.584,118.258 337.667 C 117.235 338.305,111.538 342.130,109.774 343.363 C 108.594 344.189,102.936 348.541,101.786 349.508 C 101.476 349.768,100.888 350.261,100.481 350.602 C 93.072 356.800,83.317 366.902,78.195 373.680 C 77.937 374.022,77.218 374.952,76.598 375.747 C 74.900 377.923,72.177 381.779,70.356 384.586 C 70.188 384.845,69.684 385.612,69.236 386.292 C 68.788 386.972,68.421 387.586,68.421 387.656 C 68.421 387.727,68.167 388.136,67.857 388.564 C 67.547 388.992,67.293 389.456,67.293 389.596 C 67.293 389.735,67.209 389.850,67.105 389.850 C 67.002 389.850,66.917 389.940,66.917 390.051 C 66.917 390.161,66.664 390.621,66.353 391.071 C 66.043 391.522,65.789 391.936,65.789 391.992 C 65.789 392.047,65.324 392.898,64.756 393.883 C 64.187 394.868,63.722 395.702,63.722 395.738 C 63.722 395.773,63.215 396.746,62.595 397.899 C 61.975 399.053,60.913 401.203,60.234 402.677 C 59.555 404.151,58.796 405.780,58.548 406.297 C 58.052 407.328,57.291 409.144,56.263 411.748 C 55.331 414.111,55.231 414.380,55.282 414.380 C 55.306 414.380,55.212 414.591,55.072 414.850 C 54.830 415.296,53.465 419.090,53.297 419.780 C 53.254 419.958,53.049 420.593,52.841 421.190 C 52.633 421.786,52.199 423.163,51.877 424.248 C 51.555 425.334,51.216 426.433,51.124 426.692 C 51.031 426.950,50.651 428.388,50.279 429.887 C 49.906 431.386,49.444 433.226,49.251 433.976 L 48.901 435.338 124.450 435.338 L 200.000 435.338 200.000 405.474 L 200.000 375.609 199.295 374.873 C 198.549 374.094,187.411 362.289,185.338 360.079 C 184.023 358.677,183.734 358.371,181.576 356.095 C 178.201 352.537,173.502 347.558,172.462 346.440 C 171.029 344.898,169.338 343.110,162.760 336.184 C 161.778 335.150,160.306 333.586,159.489 332.707 C 157.924 331.024,156.381 329.391,153.715 326.598 C 152.827 325.667,151.918 324.673,151.694 324.389 C 151.233 323.802,150.933 323.769,150.000 324.201 M220.479 336.795 L 219.831 337.500 220.536 336.852 C 221.192 336.249,221.327 336.090,221.183 336.090 C 221.152 336.090,220.835 336.407,220.479 336.795 " stroke="none" fill="#84c464" fill-rule="evenodd"></path><path id="path2" d="M52.820 98.164 C 52.723 98.259,30.243 98.494,21.100 98.495 L 15.977 98.496 15.977 266.918 L 15.977 435.340 32.455 435.292 L 48.932 435.244 49.266 433.929 C 49.450 433.205,49.905 431.386,50.278 429.887 C 50.651 428.388,51.031 426.950,51.124 426.692 C 51.216 426.433,51.555 425.334,51.877 424.248 C 52.199 423.163,52.633 421.786,52.841 421.190 C 53.049 420.593,53.254 419.958,53.297 419.780 C 53.446 419.165,54.818 415.319,55.022 414.944 C 55.134 414.737,55.245 414.483,55.267 414.380 C 55.316 414.157,55.389 413.964,56.263 411.748 C 57.291 409.144,58.052 407.328,58.548 406.297 C 58.796 405.780,59.555 404.151,60.234 402.677 C 60.913 401.203,61.975 399.053,62.595 397.899 C 63.215 396.746,63.722 395.773,63.722 395.738 C 63.722 395.702,64.187 394.868,64.756 393.883 C 65.324 392.898,65.789 392.047,65.789 391.992 C 65.789 391.936,66.043 391.522,66.353 391.071 C 66.664 390.621,66.917 390.161,66.917 390.051 C 66.917 389.940,67.002 389.850,67.105 389.850 C 67.209 389.850,67.293 389.735,67.293 389.596 C 67.293 389.456,67.547 388.992,67.857 388.564 C 68.167 388.136,68.421 387.727,68.421 387.656 C 68.421 387.586,68.788 386.972,69.236 386.292 C 69.684 385.612,70.188 384.845,70.356 384.586 C 72.177 381.779,74.900 377.923,76.598 375.747 C 77.218 374.952,77.937 374.022,78.195 373.680 C 83.317 366.902,93.072 356.800,100.481 350.602 C 100.888 350.261,101.476 349.768,101.786 349.508 C 102.936 348.541,108.594 344.189,109.774 343.363 C 111.654 342.049,117.281 338.276,118.269 337.667 C 118.754 337.368,119.642 336.822,120.242 336.452 C 120.843 336.083,122.223 335.287,123.308 334.684 C 124.394 334.080,125.663 333.363,126.128 333.090 C 126.593 332.817,128.031 332.059,129.323 331.405 C 130.616 330.752,131.758 330.155,131.861 330.078 C 131.964 330.002,132.291 329.881,132.588 329.810 C 132.884 329.739,133.085 329.639,133.033 329.587 C 132.981 329.535,132.400 329.617,131.742 329.768 C 115.639 333.478,92.730 331.105,77.057 324.105 C 76.597 323.900,75.672 323.492,75.000 323.199 C 60.048 316.664,44.844 303.709,35.775 289.774 C 35.095 288.730,34.347 287.580,34.111 287.218 C 28.389 278.416,23.907 266.656,21.538 254.229 C 20.291 247.691,19.767 235.540,20.475 229.605 C 20.587 228.675,20.725 227.491,20.784 226.974 C 25.563 184.766,59.310 150.575,101.504 145.192 C 108.842 144.256,117.911 144.145,123.590 144.923 C 124.314 145.022,125.919 145.239,127.156 145.405 C 147.978 148.204,168.164 158.959,182.895 175.100 C 188.741 181.506,194.253 189.678,197.824 197.234 C 199.558 200.903,199.812 201.477,199.812 201.727 C 199.812 202.115,200.095 201.662,200.655 200.376 C 204.061 192.560,208.498 185.379,214.362 178.195 C 218.144 173.561,226.772 165.383,230.622 162.782 C 230.852 162.627,231.619 162.077,232.326 161.560 C 243.781 153.194,259.721 146.918,273.872 145.204 C 275.164 145.048,277.025 144.827,278.008 144.714 C 281.131 144.355,294.984 144.446,296.110 144.834 C 296.233 144.876,297.434 145.045,298.778 145.208 C 300.122 145.372,302.025 145.665,303.008 145.860 C 303.990 146.055,305.089 146.259,305.451 146.313 C 308.836 146.824,318.519 149.847,322.650 151.684 C 326.787 153.523,330.154 155.167,331.861 156.181 C 332.171 156.366,332.848 156.751,333.365 157.038 C 333.882 157.325,334.668 157.804,335.113 158.103 C 335.557 158.402,335.961 158.647,336.010 158.647 C 336.221 158.647,340.364 161.515,342.909 163.424 C 349.965 168.715,357.560 176.534,362.460 183.553 C 363.021 184.356,365.201 187.632,365.901 188.722 C 373.164 200.046,377.851 213.986,379.521 229.229 C 380.021 233.796,379.905 244.609,379.313 248.590 C 379.206 249.314,378.956 251.006,378.758 252.350 C 377.681 259.679,375.437 267.689,372.650 274.154 C 366.209 289.094,357.219 301.003,344.829 311.009 C 335.925 318.198,324.517 324.259,313.910 327.434 C 313.134 327.666,312.289 327.927,312.030 328.013 C 310.463 328.535,303.883 329.990,301.410 330.361 C 294.969 331.327,291.469 331.570,285.150 331.488 C 282.307 331.451,279.770 331.379,279.511 331.329 C 279.253 331.278,278.280 331.182,277.350 331.116 C 275.563 330.990,274.656 330.871,270.865 330.270 C 264.477 329.256,256.596 326.983,250.430 324.376 L 248.887 323.723 247.997 324.691 C 246.973 325.804,243.764 329.211,236.455 336.941 C 233.618 339.941,230.028 343.745,228.477 345.392 C 226.927 347.040,224.051 350.087,222.086 352.163 C 218.463 355.993,217.005 357.539,207.990 367.105 C 205.213 370.052,202.279 373.157,201.471 374.007 L 200.000 375.551 200.000 405.495 L 200.000 435.440 236.513 435.415 C 275.124 435.388,278.114 435.323,282.989 434.404 C 283.506 434.307,284.605 434.134,285.432 434.019 C 287.178 433.778,291.709 432.950,292.669 432.697 C 293.031 432.601,294.554 432.222,296.053 431.854 C 301.666 430.475,307.583 428.436,314.189 425.603 C 322.921 421.859,335.698 413.848,342.293 407.982 C 342.552 407.753,343.186 407.195,343.703 406.744 C 352.070 399.437,358.690 391.954,364.610 383.113 C 365.672 381.527,366.541 380.201,366.541 380.167 C 366.541 380.132,367.075 379.231,367.728 378.163 C 371.680 371.697,375.891 362.442,378.190 355.169 C 378.419 354.445,378.720 353.515,378.860 353.102 C 380.858 347.199,382.770 337.285,383.682 328.102 C 383.852 326.391,383.921 298.363,383.968 212.171 L 384.030 98.496 370.727 98.465 C 336.176 98.385,322.914 98.442,316.635 98.697 C 314.878 98.769,311.537 98.882,309.211 98.949 C 306.884 99.016,304.516 99.108,303.947 99.154 C 303.379 99.200,301.602 99.292,300.000 99.358 C 298.398 99.424,297.043 99.503,296.990 99.535 C 296.865 99.608,295.340 99.745,290.695 100.099 C 288.628 100.256,286.809 100.419,286.654 100.460 C 286.499 100.501,285.695 100.585,284.868 100.646 C 283.270 100.765,278.954 101.122,273.402 101.593 C 271.541 101.750,269.827 101.924,269.592 101.978 C 269.357 102.032,267.665 102.283,265.833 102.534 C 253.033 104.292,238.932 107.240,229.464 110.138 C 228.766 110.352,227.667 110.686,227.021 110.880 C 224.723 111.572,216.732 114.369,215.695 114.844 C 215.489 114.938,214.262 115.452,212.970 115.986 C 210.964 116.815,203.413 120.472,200.766 121.898 L 199.934 122.346 199.168 121.911 C 194.371 119.191,190.716 117.363,185.056 114.853 C 173.068 109.536,156.608 104.916,141.475 102.620 C 140.147 102.418,138.878 102.209,138.656 102.156 C 138.094 102.020,133.107 101.369,130.169 101.047 C 127.547 100.760,122.196 100.318,117.481 100.000 C 114.484 99.798,112.939 99.678,111.466 99.531 C 111.001 99.485,109.944 99.401,109.117 99.344 C 108.289 99.288,105.963 99.120,103.947 98.971 C 101.931 98.822,98.506 98.650,96.335 98.587 C 94.164 98.525,91.922 98.435,91.353 98.388 C 89.897 98.266,52.934 98.051,52.820 98.164 M199.549 274.961 C 197.858 279.172,194.149 285.931,191.042 290.461 C 190.280 291.572,189.679 292.481,189.706 292.481 C 189.733 292.481,190.390 292.361,191.165 292.214 C 196.020 291.294,207.345 291.415,210.079 292.416 C 210.409 292.536,210.412 292.521,210.129 292.184 C 209.827 291.826,207.254 288.028,206.826 287.310 C 204.008 282.581,202.633 279.988,201.097 276.504 C 199.920 273.834,199.978 273.892,199.549 274.961 " stroke="none" fill="#5bb051" fill-rule="evenodd"></path><path id="path3" d="M47.133 98.261 C 48.193 98.294,49.927 98.294,50.987 98.261 C 52.047 98.227,51.180 98.200,49.060 98.200 C 46.941 98.200,46.074 98.227,47.133 98.261 M82.472 98.260 C 83.221 98.296,84.448 98.296,85.197 98.260 C 85.947 98.224,85.334 98.195,83.835 98.195 C 82.336 98.195,81.722 98.224,82.472 98.260 M332.008 98.447 C 332.502 98.486,333.263 98.485,333.699 98.446 C 334.136 98.406,333.731 98.374,332.801 98.375 C 331.870 98.376,331.513 98.408,332.008 98.447 M358.497 98.447 C 359.191 98.484,360.375 98.484,361.129 98.448 C 361.883 98.412,361.316 98.383,359.868 98.382 C 358.421 98.382,357.804 98.411,358.497 98.447 M312.077 98.822 C 312.568 98.861,313.372 98.861,313.863 98.822 C 314.354 98.784,313.952 98.752,312.970 98.752 C 311.988 98.752,311.586 98.784,312.077 98.822 M104.091 99.005 C 104.324 99.050,104.663 99.048,104.842 99.001 C 105.022 98.954,104.831 98.917,104.417 98.920 C 104.004 98.922,103.857 98.960,104.091 99.005 M306.632 99.011 C 307.126 99.049,307.887 99.049,308.323 99.010 C 308.760 98.970,308.355 98.938,307.425 98.939 C 306.494 98.939,306.137 98.972,306.632 99.011 M113.957 99.754 C 114.138 99.801,114.434 99.801,114.615 99.754 C 114.796 99.706,114.648 99.668,114.286 99.668 C 113.924 99.668,113.776 99.706,113.957 99.754 M294.504 99.757 C 294.738 99.802,295.076 99.800,295.256 99.753 C 295.436 99.706,295.244 99.669,294.831 99.671 C 294.417 99.674,294.270 99.712,294.504 99.757 M285.761 100.506 C 285.942 100.553,286.238 100.553,286.419 100.506 C 286.600 100.458,286.452 100.420,286.090 100.420 C 285.728 100.420,285.580 100.458,285.761 100.506 M126.271 100.697 C 126.505 100.742,126.843 100.740,127.023 100.693 C 127.203 100.646,127.011 100.609,126.598 100.611 C 126.184 100.613,126.037 100.652,126.271 100.697 M283.414 100.697 C 283.648 100.742,283.986 100.740,284.166 100.693 C 284.345 100.646,284.154 100.609,283.741 100.611 C 283.327 100.613,283.180 100.652,283.414 100.697 M274.765 101.448 C 274.998 101.493,275.378 101.493,275.611 101.448 C 275.844 101.404,275.653 101.367,275.188 101.367 C 274.723 101.367,274.532 101.404,274.765 101.448 M107.002 144.678 C 107.183 144.726,107.479 144.726,107.660 144.678 C 107.841 144.631,107.693 144.592,107.331 144.592 C 106.969 144.592,106.821 144.631,107.002 144.678 M119.596 144.678 C 119.777 144.726,120.073 144.726,120.254 144.678 C 120.435 144.631,120.287 144.592,119.925 144.592 C 119.563 144.592,119.415 144.631,119.596 144.678 M279.088 144.682 C 279.321 144.726,279.702 144.726,279.934 144.682 C 280.167 144.637,279.977 144.600,279.511 144.600 C 279.046 144.600,278.856 144.637,279.088 144.682 M292.716 144.678 C 292.897 144.726,293.193 144.726,293.374 144.678 C 293.555 144.631,293.407 144.592,293.045 144.592 C 292.683 144.592,292.535 144.631,292.716 144.678 M122.039 144.866 C 122.220 144.914,122.516 144.914,122.697 144.866 C 122.878 144.819,122.730 144.780,122.368 144.780 C 122.007 144.780,121.859 144.819,122.039 144.866 M277.023 144.870 C 277.257 144.915,277.595 144.913,277.775 144.866 C 277.954 144.819,277.763 144.782,277.350 144.784 C 276.936 144.786,276.789 144.825,277.023 144.870 M295.068 144.870 C 295.302 144.915,295.640 144.913,295.820 144.866 C 296.000 144.819,295.808 144.782,295.395 144.784 C 294.981 144.786,294.834 144.825,295.068 144.870 M178.383 170.583 C 178.945 171.151,179.447 171.617,179.498 171.617 C 179.550 171.617,179.133 171.151,178.571 170.583 C 178.010 170.014,177.508 169.549,177.456 169.549 C 177.405 169.549,177.822 170.014,178.383 170.583 M47.455 171.852 L 46.523 172.838 47.509 171.906 C 48.052 171.393,48.496 170.948,48.496 170.919 C 48.496 170.778,48.322 170.935,47.455 171.852 M353.477 172.932 C 353.881 173.346,354.254 173.684,354.306 173.684 C 354.357 173.684,354.069 173.346,353.665 172.932 C 353.262 172.519,352.889 172.180,352.837 172.180 C 352.786 172.180,353.074 172.519,353.477 172.932 M180.827 173.026 C 181.178 173.388,181.507 173.684,181.559 173.684 C 181.610 173.684,181.366 173.388,181.015 173.026 C 180.664 172.664,180.335 172.368,180.283 172.368 C 180.232 172.368,180.476 172.664,180.827 173.026 M218.035 174.013 L 217.387 174.718 218.092 174.070 C 218.748 173.467,218.883 173.308,218.740 173.308 C 218.708 173.308,218.391 173.625,218.035 174.013 M216.155 176.081 L 215.508 176.786 216.212 176.138 C 216.868 175.535,217.004 175.376,216.860 175.376 C 216.829 175.376,216.512 175.693,216.155 176.081 M168.515 183.083 C 169.129 183.703,169.673 184.211,169.725 184.211 C 169.777 184.211,169.317 183.703,168.703 183.083 C 168.089 182.462,167.545 181.955,167.493 181.955 C 167.441 181.955,167.901 182.462,168.515 183.083 M231.288 183.130 L 230.545 183.929 231.344 183.186 C 232.087 182.495,232.229 182.331,232.087 182.331 C 232.056 182.331,231.697 182.690,231.288 183.130 M274.671 189.791 C 274.852 189.839,275.148 189.839,275.329 189.791 C 275.510 189.744,275.362 189.705,275.000 189.705 C 274.638 189.705,274.490 189.744,274.671 189.791 M277.491 189.791 C 277.672 189.839,277.968 189.839,278.148 189.791 C 278.329 189.744,278.181 189.705,277.820 189.705 C 277.458 189.705,277.310 189.744,277.491 189.791 M119.443 222.603 L 118.891 223.214 119.502 222.662 C 119.838 222.359,120.113 222.084,120.113 222.051 C 120.113 221.906,119.958 222.034,119.443 222.603 M272.263 222.979 L 271.711 223.590 272.321 223.038 C 272.891 222.524,273.019 222.368,272.874 222.368 C 272.841 222.368,272.566 222.643,272.263 222.979 M379.371 228.665 C 379.373 229.079,379.411 229.226,379.456 228.992 C 379.501 228.758,379.500 228.420,379.452 228.240 C 379.405 228.061,379.369 228.252,379.371 228.665 M209.066 230.075 C 209.066 230.437,209.105 230.585,209.152 230.404 C 209.199 230.223,209.199 229.927,209.152 229.746 C 209.105 229.565,209.066 229.713,209.066 230.075 M379.562 231.015 C 379.562 231.480,379.599 231.671,379.644 231.438 C 379.689 231.205,379.689 230.825,379.644 230.592 C 379.599 230.359,379.562 230.550,379.562 231.015 M20.348 231.297 C 20.350 231.711,20.389 231.858,20.434 231.624 C 20.479 231.390,20.477 231.052,20.430 230.872 C 20.383 230.692,20.346 230.883,20.348 231.297 M208.878 232.331 C 208.878 232.693,208.917 232.841,208.964 232.660 C 209.011 232.479,209.011 232.183,208.964 232.002 C 208.917 231.821,208.878 231.969,208.878 232.331 M20.169 234.774 C 20.169 235.343,20.204 235.576,20.247 235.291 C 20.290 235.007,20.290 234.542,20.247 234.258 C 20.204 233.973,20.169 234.206,20.169 234.774 M226.555 237.030 C 226.555 237.495,226.592 237.686,226.636 237.453 C 226.681 237.220,226.681 236.840,226.636 236.607 C 226.592 236.375,226.555 236.565,226.555 237.030 M173.362 237.312 C 173.363 237.829,173.400 238.018,173.443 237.732 C 173.486 237.447,173.485 237.024,173.441 236.793 C 173.396 236.561,173.361 236.795,173.362 237.312 M191.209 240.226 C 191.209 240.587,191.248 240.735,191.295 240.555 C 191.342 240.374,191.342 240.078,191.295 239.897 C 191.248 239.716,191.209 239.864,191.209 240.226 M20.167 241.071 C 20.168 241.588,20.204 241.778,20.248 241.492 C 20.291 241.206,20.290 240.783,20.245 240.552 C 20.200 240.321,20.165 240.555,20.167 241.071 M173.362 242.387 C 173.363 242.904,173.400 243.093,173.443 242.808 C 173.486 242.522,173.485 242.099,173.441 241.868 C 173.396 241.637,173.361 241.870,173.362 242.387 M226.555 242.481 C 226.555 242.946,226.592 243.137,226.636 242.904 C 226.681 242.672,226.681 242.291,226.636 242.058 C 226.592 241.826,226.555 242.016,226.555 242.481 M208.878 243.609 C 208.878 243.971,208.917 244.119,208.964 243.938 C 209.011 243.757,209.011 243.461,208.964 243.280 C 208.917 243.099,208.878 243.247,208.878 243.609 M20.348 244.643 C 20.350 245.056,20.389 245.203,20.434 244.970 C 20.479 244.736,20.477 244.397,20.430 244.218 C 20.383 244.038,20.346 244.229,20.348 244.643 M379.562 244.925 C 379.562 245.390,379.599 245.580,379.644 245.348 C 379.689 245.115,379.689 244.734,379.644 244.502 C 379.599 244.269,379.562 244.460,379.562 244.925 M379.375 247.180 C 379.375 247.646,379.411 247.836,379.456 247.603 C 379.501 247.371,379.501 246.990,379.456 246.758 C 379.411 246.525,379.375 246.715,379.375 247.180 M159.388 274.577 L 158.741 275.282 159.445 274.634 C 160.102 274.031,160.237 273.872,160.093 273.872 C 160.062 273.872,159.745 274.189,159.388 274.577 M157.977 275.987 L 157.425 276.598 158.036 276.046 C 158.372 275.742,158.647 275.467,158.647 275.435 C 158.647 275.290,158.492 275.417,157.977 275.987 M352.347 304.182 L 349.906 306.673 352.397 304.232 C 354.710 301.965,354.972 301.692,354.838 301.692 C 354.810 301.692,353.689 302.813,352.347 304.182 M47.744 304.417 C 48.095 304.779,48.424 305.075,48.476 305.075 C 48.528 305.075,48.283 304.779,47.932 304.417 C 47.582 304.055,47.252 303.759,47.201 303.759 C 47.149 303.759,47.394 304.055,47.744 304.417 M108.790 315.546 C 109.024 315.591,109.362 315.590,109.542 315.543 C 109.721 315.496,109.530 315.459,109.117 315.461 C 108.703 315.463,108.556 315.502,108.790 315.546 M117.812 315.546 C 118.046 315.591,118.385 315.590,118.564 315.543 C 118.744 315.496,118.553 315.459,118.139 315.461 C 117.726 315.463,117.579 315.502,117.812 315.546 M281.534 315.546 C 281.768 315.591,282.106 315.590,282.286 315.543 C 282.466 315.496,282.274 315.459,281.861 315.461 C 281.447 315.463,281.300 315.502,281.534 315.546 M290.557 315.546 C 290.791 315.591,291.129 315.590,291.309 315.543 C 291.488 315.496,291.297 315.459,290.883 315.461 C 290.470 315.463,290.323 315.502,290.557 315.546 M383.901 323.590 C 383.901 324.521,383.933 324.925,383.972 324.489 C 384.011 324.052,384.012 323.291,383.973 322.797 C 383.934 322.303,383.902 322.660,383.901 323.590 M168.609 325.470 C 168.960 325.832,169.289 326.128,169.341 326.128 C 169.392 326.128,169.148 325.832,168.797 325.470 C 168.446 325.108,168.117 324.812,168.065 324.812 C 168.014 324.812,168.258 325.108,168.609 325.470 M153.102 325.940 C 153.505 326.353,153.878 326.692,153.930 326.692 C 153.981 326.692,153.693 326.353,153.289 325.940 C 152.886 325.526,152.513 325.188,152.461 325.188 C 152.410 325.188,152.698 325.526,153.102 325.940 M171.985 328.994 C 172.764 329.824,172.932 329.974,172.932 329.832 C 172.932 329.802,172.531 329.400,172.039 328.940 L 171.147 328.102 171.985 328.994 M227.905 328.994 L 227.162 329.793 227.961 329.050 C 228.703 328.359,228.846 328.195,228.704 328.195 C 228.673 328.195,228.313 328.555,227.905 328.994 M112.180 331.531 C 113.038 331.566,114.391 331.566,115.187 331.531 C 115.984 331.495,115.282 331.467,113.628 331.467 C 111.974 331.467,111.322 331.496,112.180 331.531 M284.258 331.531 C 285.369 331.564,287.188 331.564,288.299 331.531 C 289.410 331.498,288.501 331.471,286.278 331.471 C 284.055 331.471,283.146 331.498,284.258 331.531 M224.706 332.378 L 224.154 332.989 224.765 332.437 C 225.334 331.922,225.462 331.767,225.317 331.767 C 225.285 331.767,225.010 332.042,224.706 332.378 M240.499 332.566 L 239.756 333.365 240.555 332.622 C 241.297 331.931,241.440 331.767,241.298 331.767 C 241.267 331.767,240.907 332.126,240.499 332.566 M178.008 335.432 C 178.358 335.794,178.687 336.090,178.739 336.090 C 178.791 336.090,178.546 335.794,178.195 335.432 C 177.845 335.070,177.516 334.774,177.464 334.774 C 177.412 334.774,177.657 335.070,178.008 335.432 M162.500 335.902 C 163.009 336.419,163.468 336.842,163.520 336.842 C 163.571 336.842,163.197 336.419,162.688 335.902 C 162.179 335.385,161.720 334.962,161.668 334.962 C 161.617 334.962,161.991 335.385,162.500 335.902 M237.115 336.137 L 236.372 336.936 237.171 336.193 C 237.914 335.502,238.056 335.338,237.914 335.338 C 237.883 335.338,237.524 335.698,237.115 336.137 M180.827 338.405 C 180.827 338.437,181.102 338.712,181.438 339.016 L 182.049 339.568 181.497 338.957 C 180.982 338.387,180.827 338.259,180.827 338.405 M165.038 338.593 C 165.038 338.625,165.313 338.900,165.648 339.204 L 166.259 339.756 165.707 339.145 C 165.193 338.575,165.038 338.447,165.038 338.593 M184.680 342.481 C 185.084 342.895,185.457 343.233,185.509 343.233 C 185.560 343.233,185.272 342.895,184.868 342.481 C 184.465 342.068,184.092 341.729,184.040 341.729 C 183.989 341.729,184.277 342.068,184.680 342.481 M211.842 345.959 C 211.386 346.424,211.054 346.805,211.106 346.805 C 211.158 346.805,211.573 346.424,212.030 345.959 C 212.487 345.493,212.818 345.113,212.766 345.113 C 212.715 345.113,212.299 345.493,211.842 345.959 M227.809 346.006 L 227.162 346.711 227.867 346.063 C 228.254 345.706,228.571 345.389,228.571 345.358 C 228.571 345.214,228.412 345.350,227.809 346.006 M190.789 348.966 C 191.140 349.328,191.469 349.624,191.521 349.624 C 191.573 349.624,191.328 349.328,190.977 348.966 C 190.627 348.604,190.297 348.308,190.246 348.308 C 190.194 348.308,190.439 348.604,190.789 348.966 M208.917 349.107 L 208.365 349.718 208.976 349.166 C 209.545 348.651,209.673 348.496,209.528 348.496 C 209.495 348.496,209.220 348.771,208.917 349.107 M175.188 349.342 C 175.539 349.704,175.868 350.000,175.920 350.000 C 175.971 350.000,175.727 349.704,175.376 349.342 C 175.025 348.980,174.696 348.684,174.644 348.684 C 174.593 348.684,174.837 348.980,175.188 349.342 M224.436 349.530 C 223.980 349.995,223.648 350.376,223.700 350.376 C 223.752 350.376,224.167 349.995,224.624 349.530 C 225.081 349.065,225.412 348.684,225.360 348.684 C 225.309 348.684,224.893 349.065,224.436 349.530 M178.188 352.491 C 178.967 353.321,179.135 353.470,179.135 353.329 C 179.135 353.298,178.734 352.897,178.242 352.436 L 177.350 351.598 178.188 352.491 M193.609 351.939 C 193.609 351.971,193.884 352.246,194.220 352.549 L 194.831 353.102 194.279 352.491 C 193.764 351.921,193.609 351.793,193.609 351.939 M197.368 355.921 C 197.719 356.283,198.048 356.579,198.100 356.579 C 198.152 356.579,197.907 356.283,197.556 355.921 C 197.206 355.559,196.876 355.263,196.825 355.263 C 196.773 355.263,197.018 355.559,197.368 355.921 M211.842 362.876 C 211.386 363.341,211.054 363.722,211.106 363.722 C 211.158 363.722,211.573 363.341,212.030 362.876 C 212.487 362.411,212.818 362.030,212.766 362.030 C 212.715 362.030,212.299 362.411,211.842 362.876 M187.406 362.277 C 187.406 362.309,187.681 362.584,188.017 362.888 L 188.628 363.440 188.076 362.829 C 187.561 362.260,187.406 362.132,187.406 362.277 M190.883 365.977 C 191.287 366.391,191.660 366.729,191.712 366.729 C 191.763 366.729,191.475 366.391,191.071 365.977 C 190.668 365.564,190.295 365.226,190.243 365.226 C 190.192 365.226,190.480 365.564,190.883 365.977 M208.729 366.212 L 208.177 366.823 208.788 366.271 C 209.357 365.757,209.485 365.602,209.340 365.602 C 209.307 365.602,209.032 365.876,208.729 366.212 M354.030 396.664 L 353.477 397.274 354.088 396.722 C 354.424 396.419,354.699 396.144,354.699 396.111 C 354.699 395.966,354.544 396.094,354.030 396.664 M351.586 399.295 L 351.034 399.906 351.645 399.354 C 352.214 398.839,352.342 398.684,352.197 398.684 C 352.164 398.684,351.890 398.959,351.586 399.295 M345.855 404.840 L 345.207 405.545 345.912 404.897 C 346.299 404.541,346.617 404.224,346.617 404.192 C 346.617 404.049,346.457 404.184,345.855 404.840 M276.647 435.095 C 276.881 435.140,277.219 435.139,277.399 435.092 C 277.579 435.045,277.387 435.008,276.974 435.010 C 276.560 435.012,276.413 435.050,276.647 435.095 M86.607 435.479 C 107.413 435.506,141.459 435.506,162.265 435.479 C 183.071 435.453,166.048 435.431,124.436 435.431 C 82.824 435.431,65.801 435.453,86.607 435.479 " stroke="none" fill="#64745c" fill-rule="evenodd"></path><path id="path4" d="M106.438 160.656 C 106.619 160.703,106.915 160.703,107.096 160.656 C 107.277 160.609,107.129 160.570,106.767 160.570 C 106.405 160.570,106.257 160.609,106.438 160.656 M120.160 160.656 C 120.341 160.703,120.637 160.703,120.818 160.656 C 120.999 160.609,120.851 160.570,120.489 160.570 C 120.127 160.570,119.979 160.609,120.160 160.656 M279.182 160.656 C 279.363 160.703,279.659 160.703,279.840 160.656 C 280.021 160.609,279.873 160.570,279.511 160.570 C 279.149 160.570,279.001 160.609,279.182 160.656 M292.904 160.656 C 293.085 160.703,293.381 160.703,293.562 160.656 C 293.743 160.609,293.595 160.570,293.233 160.570 C 292.871 160.570,292.723 160.609,292.904 160.656 M125.517 189.794 C 125.750 189.839,126.130 189.839,126.363 189.794 C 126.595 189.750,126.405 189.713,125.940 189.713 C 125.475 189.713,125.284 189.750,125.517 189.794 M278.712 189.794 C 278.945 189.839,279.326 189.839,279.558 189.794 C 279.791 189.750,279.601 189.713,279.135 189.713 C 278.670 189.713,278.480 189.750,278.712 189.794 M158.835 204.417 C 159.396 204.986,159.898 205.451,159.950 205.451 C 160.001 205.451,159.584 204.986,159.023 204.417 C 158.461 203.849,157.959 203.383,157.908 203.383 C 157.856 203.383,158.273 203.849,158.835 204.417 M126.572 205.263 C 126.572 206.245,126.603 206.647,126.642 206.156 C 126.681 205.665,126.681 204.861,126.642 204.370 C 126.603 203.879,126.572 204.281,126.572 205.263 M312.030 204.417 C 312.381 204.779,312.710 205.075,312.762 205.075 C 312.813 205.075,312.569 204.779,312.218 204.417 C 311.867 204.055,311.538 203.759,311.486 203.759 C 311.435 203.759,311.679 204.055,312.030 204.417 M363.577 231.015 C 363.577 231.377,363.616 231.525,363.663 231.344 C 363.711 231.163,363.711 230.867,363.663 230.686 C 363.616 230.505,363.577 230.653,363.577 231.015 M191.031 233.553 C 191.033 234.070,191.069 234.259,191.112 233.973 C 191.156 233.687,191.154 233.264,191.110 233.033 C 191.065 232.802,191.030 233.036,191.031 233.553 M36.134 233.459 C 36.134 233.820,36.173 233.969,36.220 233.788 C 36.267 233.607,36.267 233.311,36.220 233.130 C 36.173 232.949,36.134 233.097,36.134 233.459 M208.882 233.553 C 208.884 233.966,208.923 234.113,208.968 233.879 C 209.012 233.646,209.011 233.307,208.964 233.128 C 208.917 232.948,208.880 233.139,208.882 233.553 M208.718 237.970 C 208.718 239.159,208.748 239.645,208.786 239.051 C 208.823 238.456,208.823 237.484,208.786 236.889 C 208.748 236.295,208.718 236.781,208.718 237.970 M191.234 237.876 C 191.235 238.910,191.266 239.309,191.304 238.762 C 191.342 238.216,191.342 237.370,191.303 236.883 C 191.265 236.395,191.234 236.842,191.234 237.876 M191.034 242.293 C 191.034 242.862,191.069 243.094,191.112 242.810 C 191.155 242.526,191.155 242.061,191.112 241.776 C 191.069 241.492,191.034 241.725,191.034 242.293 M208.886 242.293 C 208.886 242.758,208.922 242.949,208.967 242.716 C 209.012 242.484,209.012 242.103,208.967 241.870 C 208.922 241.638,208.886 241.828,208.886 242.293 M36.138 242.575 C 36.140 242.989,36.178 243.136,36.223 242.902 C 36.268 242.668,36.266 242.330,36.219 242.150 C 36.172 241.970,36.136 242.162,36.138 242.575 M363.577 244.925 C 363.577 245.287,363.616 245.435,363.663 245.254 C 363.711 245.073,363.711 244.777,363.663 244.596 C 363.616 244.415,363.577 244.563,363.577 244.925 M160.608 273.355 L 160.056 273.966 160.667 273.414 C 161.003 273.110,161.278 272.836,161.278 272.803 C 161.278 272.658,161.123 272.786,160.608 273.355 M344.255 289.521 L 343.703 290.132 344.314 289.579 C 344.883 289.065,345.011 288.910,344.866 288.910 C 344.834 288.910,344.559 289.185,344.255 289.521 M122.039 289.989 C 122.737 290.025,123.879 290.025,124.577 289.989 C 125.275 289.953,124.704 289.923,123.308 289.923 C 121.913 289.923,121.342 289.953,122.039 289.989 M275.431 289.989 C 276.133 290.025,277.233 290.025,277.874 289.989 C 278.516 289.952,277.942 289.922,276.598 289.923 C 275.254 289.923,274.729 289.953,275.431 289.989 M58.365 292.481 C 59.498 293.618,60.468 294.549,60.520 294.549 C 60.572 294.549,59.686 293.618,58.553 292.481 C 57.419 291.344,56.449 290.414,56.397 290.414 C 56.346 290.414,57.231 291.344,58.365 292.481 M170.103 291.118 L 169.455 291.823 170.160 291.176 C 170.816 290.573,170.951 290.414,170.808 290.414 C 170.776 290.414,170.459 290.731,170.103 291.118 M341.162 292.810 L 339.004 295.019 341.212 292.860 C 343.264 290.855,343.506 290.602,343.371 290.602 C 343.343 290.602,342.350 291.595,341.162 292.810 M166.811 294.408 L 166.259 295.019 166.870 294.467 C 167.206 294.163,167.481 293.888,167.481 293.856 C 167.481 293.711,167.326 293.838,166.811 294.408 M200.004 330.874 L 200.008 358.553 200.991 357.516 C 201.531 356.945,203.158 355.215,204.605 353.670 C 206.053 352.126,208.886 349.122,210.902 346.994 C 212.918 344.867,215.752 341.866,217.199 340.325 C 218.647 338.784,221.523 335.741,223.590 333.562 C 225.658 331.384,228.492 328.378,229.887 326.882 C 231.283 325.387,232.869 323.701,233.412 323.135 C 234.606 321.890,234.605 321.912,233.561 320.314 C 229.001 313.329,222.594 308.515,213.534 305.266 C 212.167 304.776,208.403 303.915,206.579 303.676 C 204.336 303.382,202.331 303.201,201.269 303.199 L 200.000 303.195 200.004 330.874 M110.764 315.548 C 111.050 315.592,111.473 315.590,111.704 315.546 C 111.935 315.501,111.701 315.466,111.184 315.467 C 110.667 315.469,110.478 315.505,110.764 315.548 M115.651 315.548 C 115.937 315.592,116.360 315.590,116.591 315.546 C 116.822 315.501,116.588 315.466,116.071 315.467 C 115.555 315.469,115.365 315.505,115.651 315.548 M283.508 315.548 C 283.794 315.592,284.217 315.590,284.448 315.546 C 284.679 315.501,284.445 315.466,283.929 315.467 C 283.412 315.469,283.222 315.505,283.508 315.548 M288.395 315.548 C 288.681 315.592,289.104 315.590,289.335 315.546 C 289.566 315.501,289.333 315.466,288.816 315.467 C 288.299 315.469,288.110 315.505,288.395 315.548 M170.105 326.927 C 170.884 327.757,171.053 327.906,171.053 327.765 C 171.053 327.735,170.651 327.333,170.160 326.872 L 169.267 326.034 170.105 326.927 M172.932 329.946 C 172.932 329.978,173.207 330.253,173.543 330.557 L 174.154 331.109 173.602 330.498 C 173.087 329.929,172.932 329.801,172.932 329.946 M176.316 333.517 C 176.316 333.550,176.591 333.825,176.927 334.128 L 177.538 334.680 176.986 334.070 C 176.471 333.500,176.316 333.372,176.316 333.517 M179.887 337.312 C 180.238 337.674,180.567 337.970,180.619 337.970 C 180.671 337.970,180.426 337.674,180.075 337.312 C 179.724 336.950,179.395 336.654,179.344 336.654 C 179.292 336.654,179.537 336.950,179.887 337.312 M182.707 340.284 C 182.707 340.317,182.982 340.592,183.318 340.895 L 183.929 341.447 183.376 340.836 C 182.862 340.267,182.707 340.139,182.707 340.284 M189.098 347.051 C 189.098 347.084,189.373 347.359,189.709 347.662 L 190.320 348.214 189.767 347.603 C 189.253 347.034,189.098 346.906,189.098 347.051 M192.575 350.752 C 192.979 351.165,193.352 351.504,193.403 351.504 C 193.455 351.504,193.167 351.165,192.763 350.752 C 192.359 350.338,191.987 350.000,191.935 350.000 C 191.883 350.000,192.171 350.338,192.575 350.752 " stroke="none" fill="#b4b4b4" fill-rule="evenodd"></path><path id="path5" d="M192.387 0.195 C 185.450 0.848,177.268 2.379,172.221 3.968 C 169.406 4.855,165.850 6.049,165.320 6.286 C 165.009 6.424,164.544 6.599,164.286 6.674 C 163.830 6.808,163.199 7.074,161.132 8.010 C 160.586 8.257,160.102 8.459,160.056 8.459 C 160.010 8.459,159.156 8.846,158.157 9.319 C 157.158 9.792,156.161 10.257,155.943 10.353 C 155.415 10.584,153.183 11.810,150.762 13.201 C 149.682 13.821,148.624 14.425,148.412 14.542 C 148.200 14.660,147.984 14.806,147.932 14.868 C 147.881 14.931,147.632 15.090,147.380 15.223 C 147.128 15.356,146.832 15.542,146.722 15.637 C 146.612 15.732,145.719 16.331,144.737 16.969 C 143.755 17.607,142.909 18.176,142.857 18.234 C 142.805 18.292,142.298 18.675,141.729 19.085 C 140.545 19.938,140.793 19.746,137.970 22.006 C 136.781 22.958,135.672 23.873,135.506 24.039 C 135.339 24.206,134.750 24.723,134.195 25.188 C 132.784 26.372,127.755 31.408,126.405 32.989 C 125.788 33.712,125.186 34.389,125.068 34.492 C 124.950 34.596,124.077 35.653,123.128 36.842 C 122.179 38.031,121.301 39.131,121.176 39.286 C 121.052 39.441,120.529 40.158,120.014 40.879 C 119.500 41.600,118.891 42.446,118.660 42.759 C 118.430 43.071,118.097 43.602,117.921 43.938 C 117.744 44.274,117.541 44.549,117.469 44.549 C 117.398 44.549,117.234 44.803,117.105 45.113 C 116.977 45.423,116.808 45.677,116.729 45.677 C 116.651 45.677,116.479 45.938,116.347 46.257 C 116.215 46.576,116.009 46.935,115.889 47.055 C 115.769 47.176,115.343 47.867,114.942 48.590 C 114.542 49.314,114.167 49.948,114.109 50.000 C 113.819 50.259,109.921 57.958,109.493 59.117 C 109.302 59.633,109.089 60.141,109.019 60.244 C 108.949 60.348,108.578 61.236,108.194 62.218 C 107.810 63.200,107.419 64.173,107.325 64.380 C 107.071 64.936,106.601 66.286,106.180 67.669 C 105.976 68.341,105.731 69.060,105.637 69.267 C 105.542 69.474,105.329 70.150,105.163 70.771 C 104.997 71.391,104.649 72.660,104.391 73.590 C 103.753 75.882,103.261 78.048,102.780 80.681 C 102.408 82.715,102.347 82.879,101.987 82.807 C 101.773 82.764,100.676 82.679,99.549 82.618 C 98.423 82.557,97.450 82.477,97.388 82.441 C 97.254 82.363,92.212 82.155,85.526 81.950 C 81.111 81.814,49.180 81.886,47.462 82.035 C 47.049 82.071,41.889 82.165,35.996 82.243 C 30.103 82.322,24.563 82.406,23.684 82.431 C 22.805 82.456,17.117 82.485,11.043 82.497 L 0.000 82.519 -0.000 266.824 L -0.000 451.128 138.581 451.108 C 214.800 451.096,277.838 451.021,278.665 450.941 C 281.858 450.632,287.325 449.985,287.594 449.884 C 287.749 449.826,288.806 449.623,289.944 449.432 C 293.943 448.761,297.888 447.897,301.410 446.922 C 306.482 445.518,310.091 444.406,310.902 443.999 C 311.057 443.921,311.692 443.703,312.312 443.514 C 312.932 443.326,313.524 443.112,313.628 443.039 C 313.731 442.966,314.154 442.800,314.568 442.669 C 314.981 442.539,315.404 442.369,315.508 442.292 C 315.611 442.214,315.907 442.089,316.165 442.013 C 316.720 441.850,319.100 440.854,321.429 439.809 C 324.679 438.351,332.807 434.187,333.083 433.839 C 333.134 433.774,333.473 433.575,333.835 433.397 C 334.196 433.219,335.211 432.627,336.090 432.082 C 336.969 431.537,337.899 430.968,338.158 430.818 C 338.416 430.668,338.670 430.503,338.722 430.451 C 338.773 430.399,339.662 429.792,340.695 429.101 C 345.418 425.944,350.481 422.117,353.456 419.455 C 353.571 419.352,354.004 418.980,354.417 418.630 C 357.168 416.301,362.260 411.341,364.850 408.468 C 365.625 407.608,366.390 406.767,366.549 406.601 C 366.708 406.434,367.300 405.750,367.865 405.082 C 368.429 404.413,369.018 403.728,369.173 403.559 C 369.648 403.041,370.106 402.460,372.496 399.342 C 373.763 397.688,374.867 396.250,374.947 396.147 C 375.028 396.043,375.432 395.451,375.846 394.831 C 376.259 394.211,376.645 393.661,376.702 393.609 C 377.011 393.331,381.088 386.936,381.406 386.231 C 381.534 385.947,381.695 385.714,381.762 385.714 C 381.829 385.714,382.001 385.418,382.143 385.056 C 382.285 384.695,382.457 384.398,382.525 384.398 C 382.594 384.398,382.808 384.039,383.002 383.600 C 383.196 383.160,383.403 382.758,383.464 382.707 C 383.579 382.607,383.712 382.356,385.723 378.440 C 387.361 375.249,390.489 368.268,390.885 366.917 C 390.961 366.659,391.085 366.363,391.160 366.259 C 391.235 366.156,391.614 365.141,392.002 364.004 C 392.390 362.867,392.775 361.767,392.857 361.560 C 393.211 360.669,393.983 358.297,394.171 357.519 C 394.284 357.054,394.455 356.504,394.550 356.297 C 394.781 355.794,395.591 352.696,396.908 347.274 C 398.175 342.061,399.360 333.326,399.816 325.846 C 399.904 324.398,399.981 269.058,399.988 202.867 L 400.000 82.519 388.581 82.495 C 382.300 82.482,376.527 82.453,375.752 82.429 C 360.439 81.967,319.101 82.030,311.372 82.528 C 309.718 82.634,306.292 82.848,303.759 83.003 C 301.227 83.157,298.888 83.331,298.562 83.390 C 297.848 83.518,297.901 83.647,297.279 80.253 C 296.654 76.844,295.455 71.699,295.114 70.959 C 295.018 70.752,294.849 70.202,294.737 69.737 C 294.625 69.272,294.456 68.722,294.362 68.515 C 294.268 68.308,294.020 67.589,293.811 66.917 C 293.244 65.090,292.772 63.785,292.112 62.218 C 291.785 61.443,291.393 60.470,291.241 60.056 C 290.145 57.079,284.594 46.547,283.976 46.272 C 283.898 46.237,283.835 46.135,283.835 46.045 C 283.835 45.903,282.062 43.109,281.633 42.575 C 281.550 42.472,281.319 42.133,281.120 41.823 C 280.921 41.513,280.668 41.159,280.558 41.036 C 280.447 40.913,280.146 40.507,279.887 40.134 C 277.184 36.235,272.094 30.530,267.560 26.316 C 265.355 24.266,264.880 23.846,263.628 22.837 C 263.008 22.338,262.298 21.732,262.051 21.491 C 261.805 21.250,261.542 21.053,261.468 21.053 C 261.394 21.053,261.120 20.862,260.860 20.630 C 260.600 20.397,260.186 20.063,259.940 19.888 C 259.694 19.712,258.864 19.099,258.097 18.525 C 257.329 17.951,256.589 17.481,256.452 17.481 C 256.315 17.481,256.203 17.407,256.203 17.317 C 256.203 17.164,252.750 14.847,251.689 14.288 C 251.432 14.152,251.180 13.991,251.128 13.929 C 251.076 13.867,250.822 13.695,250.564 13.547 C 250.305 13.399,249.586 12.987,248.966 12.631 C 247.710 11.911,240.887 8.459,240.719 8.459 C 240.661 8.459,240.129 8.237,239.537 7.967 C 237.263 6.927,233.278 5.480,228.531 3.972 C 224.967 2.839,218.378 1.439,213.816 0.845 C 212.679 0.696,211.114 0.476,210.338 0.356 C 208.627 0.089,194.828 -0.034,192.387 0.195 M204.511 26.770 C 210.242 27.164,215.608 28.082,220.486 29.503 C 222.419 30.066,225.847 31.266,227.162 31.840 C 227.472 31.976,228.402 32.372,229.229 32.722 C 230.994 33.467,235.213 35.601,235.931 36.111 C 236.206 36.307,236.484 36.466,236.550 36.466 C 236.616 36.466,236.899 36.623,237.179 36.814 C 237.459 37.005,238.407 37.617,239.286 38.174 C 240.164 38.731,240.926 39.230,240.977 39.283 C 241.029 39.336,241.579 39.717,242.199 40.129 C 242.820 40.541,243.369 40.924,243.421 40.980 C 243.473 41.036,243.896 41.373,244.361 41.729 C 244.826 42.085,245.418 42.560,245.677 42.785 C 245.935 43.010,246.866 43.814,247.744 44.573 C 250.148 46.649,253.651 50.244,255.961 53.008 C 257.711 55.100,260.873 59.568,261.577 60.941 C 261.752 61.281,261.953 61.602,262.023 61.654 C 262.424 61.946,266.257 69.454,266.630 70.677 C 266.709 70.935,266.975 71.593,267.221 72.139 C 267.468 72.685,267.669 73.239,267.669 73.370 C 267.669 73.502,267.743 73.689,267.834 73.788 C 267.925 73.886,268.142 74.431,268.317 75.000 C 268.493 75.569,268.711 76.203,268.804 76.410 C 269.118 77.116,270.780 83.612,270.970 84.880 L 271.086 85.655 269.143 85.881 C 268.074 86.005,266.057 86.228,264.662 86.377 C 253.452 87.571,239.771 90.180,229.699 93.045 C 228.924 93.265,227.655 93.612,226.880 93.815 C 226.104 94.019,225.301 94.259,225.094 94.349 C 224.887 94.440,223.703 94.823,222.462 95.200 C 221.222 95.578,220.038 95.959,219.831 96.046 C 219.624 96.134,218.059 96.692,216.353 97.287 C 214.648 97.881,213.167 98.428,213.064 98.502 C 212.961 98.575,212.538 98.741,212.124 98.871 C 211.415 99.094,211.099 99.224,209.023 100.144 C 208.557 100.350,207.965 100.584,207.707 100.663 C 207.199 100.819,205.156 101.755,202.139 103.215 C 199.839 104.328,200.558 104.399,197.044 102.714 C 195.413 101.932,193.910 101.217,193.703 101.126 C 193.496 101.035,192.777 100.712,192.105 100.408 C 191.433 100.105,190.486 99.677,190.001 99.458 C 189.516 99.239,189.074 99.060,189.020 99.060 C 188.965 99.060,188.474 98.857,187.929 98.608 C 185.235 97.381,179.280 95.178,178.900 95.268 C 178.823 95.286,178.759 95.227,178.759 95.137 C 178.759 95.047,178.358 94.865,177.867 94.732 C 177.375 94.600,176.889 94.442,176.786 94.382 C 176.682 94.322,176.555 94.268,176.504 94.262 C 176.342 94.244,174.361 93.590,173.966 93.425 C 173.602 93.272,172.218 92.851,168.703 91.823 C 167.773 91.551,166.628 91.211,166.160 91.068 C 165.691 90.926,164.549 90.628,163.622 90.408 C 162.695 90.187,161.259 89.838,160.432 89.631 C 153.606 87.924,144.229 86.327,136.372 85.533 C 128.346 84.722,129.057 84.896,129.328 83.812 C 129.440 83.359,129.697 82.294,129.897 81.446 C 130.246 79.966,130.889 77.765,131.203 76.974 C 131.286 76.767,131.670 75.667,132.058 74.530 C 132.447 73.393,132.825 72.378,132.899 72.274 C 132.973 72.171,133.142 71.748,133.275 71.335 C 133.408 70.921,133.664 70.287,133.845 69.925 C 134.025 69.563,134.620 68.336,135.166 67.199 C 135.713 66.062,136.208 65.089,136.266 65.038 C 136.324 64.986,136.618 64.452,136.919 63.851 C 137.461 62.766,137.794 62.217,139.452 59.680 C 140.201 58.535,141.904 56.097,142.341 55.545 C 142.423 55.442,142.805 54.938,143.190 54.425 C 143.576 53.913,144.018 53.356,144.173 53.188 C 144.328 53.020,145.067 52.170,145.815 51.300 C 147.046 49.869,150.431 46.463,152.363 44.712 C 153.805 43.404,158.146 40.027,158.886 39.638 C 159.116 39.517,159.347 39.355,159.398 39.279 C 159.450 39.202,160.254 38.668,161.184 38.092 C 162.115 37.515,162.961 36.974,163.064 36.890 C 163.167 36.805,163.548 36.582,163.910 36.394 C 164.272 36.206,164.991 35.815,165.508 35.524 C 167.041 34.662,169.586 33.427,171.805 32.467 C 172.166 32.311,172.843 32.015,173.308 31.811 C 181.459 28.228,194.671 26.094,204.511 26.770 M81.203 98.203 C 86.631 98.258,91.410 98.339,91.823 98.382 C 92.237 98.426,94.605 98.515,97.086 98.580 C 101.802 98.704,101.901 98.709,107.049 99.149 C 108.806 99.299,111.682 99.514,113.440 99.626 C 115.197 99.738,116.931 99.864,117.293 99.906 C 118.257 100.017,119.978 100.158,121.898 100.283 C 140.296 101.480,162.610 106.052,177.068 111.587 C 180.330 112.836,185.601 114.987,187.030 115.653 C 190.116 117.090,194.662 119.355,196.523 120.383 C 197.556 120.954,198.766 121.609,199.212 121.839 L 200.021 122.258 200.997 121.720 C 203.808 120.171,209.828 117.220,211.791 116.427 C 212.181 116.270,212.838 115.989,213.252 115.803 C 213.926 115.500,216.046 114.665,219.267 113.434 C 221.250 112.676,227.652 110.587,229.887 109.969 C 231.076 109.640,232.260 109.292,232.519 109.197 C 237.402 107.391,256.551 103.633,268.797 102.076 C 270.399 101.872,272.049 101.659,272.462 101.602 C 272.876 101.546,275.329 101.327,277.914 101.117 C 283.833 100.637,290.142 100.102,294.267 99.731 C 306.521 98.630,329.282 98.185,362.265 98.400 L 384.023 98.542 384.023 211.442 C 384.023 286.131,383.959 325.010,383.833 326.316 C 383.728 327.401,383.516 329.622,383.361 331.251 C 382.730 337.862,381.064 346.116,379.045 352.632 C 378.773 353.510,378.439 354.618,378.303 355.094 C 378.066 355.927,376.465 360.412,376.129 361.184 C 376.040 361.391,375.736 362.110,375.455 362.782 C 362.758 393.151,338.026 417.138,308.083 428.122 C 307.101 428.482,306.109 428.855,305.879 428.950 C 303.019 430.133,294.895 432.342,290.038 433.258 C 288.332 433.580,286.513 433.925,285.996 434.025 C 285.479 434.124,283.914 434.337,282.519 434.496 C 281.123 434.656,279.781 434.822,279.536 434.866 C 276.466 435.414,272.178 435.432,144.455 435.432 L 16.071 435.432 16.024 266.964 L 15.977 98.496 23.543 98.470 C 27.704 98.456,31.659 98.422,32.331 98.396 C 33.003 98.370,41.335 98.285,50.846 98.208 C 60.357 98.131,68.153 98.059,68.170 98.047 C 68.187 98.036,68.906 98.043,69.768 98.064 C 70.630 98.085,75.775 98.147,81.203 98.203 M110.698 144.432 C 110.655 144.471,109.605 144.558,108.365 144.627 C 73.012 146.584,42.499 167.905,27.776 200.940 C 16.919 225.300,17.812 255.373,30.123 279.981 C 39.537 298.798,56.763 315.290,75.376 323.306 C 76.151 323.640,77.039 324.027,77.350 324.166 C 98.429 333.600,126.522 333.804,148.590 324.683 L 151.034 323.673 152.538 325.230 C 153.365 326.087,155.351 328.183,156.953 329.888 C 158.554 331.593,160.712 333.877,161.747 334.962 C 162.783 336.048,164.857 338.245,166.355 339.844 C 167.853 341.443,169.804 343.515,170.690 344.449 C 172.523 346.380,177.879 352.057,182.049 356.488 C 183.600 358.136,186.433 361.137,188.346 363.157 C 190.258 365.178,193.050 368.138,194.549 369.735 C 196.048 371.332,197.887 373.276,198.636 374.055 L 199.998 375.470 201.175 374.248 C 201.823 373.576,203.663 371.631,205.265 369.925 C 208.827 366.131,210.031 364.854,214.577 360.053 C 216.536 357.983,219.366 354.983,220.865 353.385 C 222.364 351.788,225.276 348.702,227.337 346.528 C 231.699 341.926,231.812 341.806,241.519 331.533 L 248.921 323.700 249.601 323.992 C 255.236 326.410,262.333 328.592,268.139 329.693 C 269.173 329.888,270.146 330.093,270.301 330.147 C 273.306 331.196,292.004 331.756,296.617 330.935 C 296.875 330.889,297.890 330.760,298.872 330.648 C 309.237 329.467,322.520 325.047,331.955 319.639 C 332.627 319.254,333.473 318.771,333.835 318.565 C 334.196 318.359,334.856 317.947,335.301 317.648 C 335.745 317.350,336.148 317.105,336.196 317.105 C 336.431 317.105,341.844 313.298,343.529 311.949 C 344.054 311.528,344.770 310.973,345.120 310.714 C 352.510 305.265,362.535 293.374,367.941 283.647 C 396.361 232.513,371.552 167.943,316.353 149.382 C 314.079 148.617,313.026 148.301,309.398 147.297 C 307.934 146.892,303.296 145.929,302.068 145.776 C 301.499 145.705,300.738 145.574,300.376 145.485 C 298.496 145.023,290.770 144.455,286.372 144.455 C 270.647 144.455,254.241 148.656,241.259 156.008 C 239.251 157.145,238.656 157.501,236.560 158.816 C 234.145 160.332,230.958 162.549,229.399 163.800 C 228.872 164.222,228.114 164.821,227.714 165.132 C 227.025 165.665,224.837 167.544,223.224 168.985 C 214.681 176.618,206.495 187.821,201.453 198.778 C 200.739 200.329,200.093 201.663,200.017 201.743 C 199.941 201.823,199.560 201.146,199.170 200.239 C 197.526 196.416,192.056 186.472,191.180 185.714 C 191.120 185.663,190.782 185.197,190.429 184.680 C 178.552 167.311,159.578 153.698,139.380 148.056 C 138.449 147.796,137.180 147.442,136.560 147.269 C 133.427 146.395,126.314 145.218,121.800 144.828 C 118.579 144.549,110.873 144.275,110.698 144.432 M122.932 160.795 C 132.125 162.047,139.303 164.132,146.939 167.769 C 149.099 168.797,154.249 171.590,154.792 172.028 C 154.896 172.112,155.827 172.744,156.861 173.434 C 207.485 207.199,200.798 284.358,145.113 308.986 C 91.245 332.811,31.267 290.024,36.269 231.341 C 38.992 199.408,61.135 172.331,91.853 163.376 C 95.769 162.234,98.526 161.650,103.571 160.891 C 107.464 160.307,118.928 160.249,122.932 160.795 M292.679 160.532 C 300.300 161.116,309.866 163.397,315.878 166.064 C 319.848 167.825,321.756 168.752,324.142 170.082 C 344.759 181.570,359.067 201.882,362.958 225.188 C 363.720 229.750,363.816 231.177,363.816 237.970 C 363.816 266.098,349.717 290.796,325.515 305.061 C 303.528 318.021,273.287 319.078,251.880 307.634 C 251.621 307.496,250.733 307.021,249.906 306.580 C 219.660 290.437,203.623 256.672,210.176 222.932 C 210.487 221.330,210.818 219.765,210.912 219.455 C 211.005 219.145,211.339 217.918,211.654 216.729 C 215.694 201.468,225.728 186.666,239.004 176.383 C 250.976 167.109,265.659 161.520,280.827 160.463 C 282.963 160.314,290.400 160.358,292.679 160.532 M121.680 189.793 L 121.085 189.871 122.189 191.411 C 130.603 203.152,126.793 219.700,114.072 226.668 C 107.835 230.084,99.578 230.476,93.081 227.664 C 87.504 225.251,83.622 221.565,80.813 216.017 L 80.120 214.647 79.650 215.453 C 65.610 239.572,75.597 271.881,101.034 284.633 C 118.584 293.431,141.501 290.728,155.540 278.204 C 181.208 255.306,179.011 216.600,150.990 198.058 C 142.589 192.498,129.386 188.775,121.680 189.793 M274.963 189.801 L 274.268 189.871 275.075 190.941 C 285.417 204.651,278.332 224.551,261.563 228.888 C 250.918 231.641,239.399 226.394,234.190 216.418 C 233.159 214.445,233.351 214.392,232.009 217.011 C 224.084 232.482,224.955 252.345,234.177 266.447 C 248.691 288.643,276.144 296.200,299.349 284.389 C 335.611 265.932,335.661 214.059,299.436 195.264 C 292.199 191.510,281.557 189.134,274.963 189.801 M200.550 275.144 C 202.426 279.581,205.551 285.321,208.485 289.717 L 210.342 292.499 209.729 292.392 C 204.261 291.438,197.624 291.323,192.296 292.090 C 190.902 292.291,189.745 292.439,189.724 292.419 C 189.704 292.398,190.402 291.326,191.276 290.035 C 192.150 288.744,193.061 287.350,193.302 286.936 C 193.542 286.523,194.185 285.423,194.731 284.492 C 195.891 282.515,198.810 276.704,199.428 275.141 C 199.954 273.811,199.986 273.811,200.550 275.144 M205.315 303.476 C 208.269 303.787,213.791 305.077,215.320 305.815 C 215.526 305.914,216.330 306.258,217.105 306.579 C 222.119 308.651,227.103 312.271,230.722 316.469 C 232.357 318.365,234.615 321.591,234.541 321.924 C 234.498 322.115,233.049 323.677,227.068 329.980 C 226.086 331.015,223.929 333.298,222.274 335.053 C 220.620 336.808,218.548 339.003,217.669 339.931 C 216.079 341.611,214.238 343.564,211.372 346.610 C 210.545 347.490,209.141 348.972,208.252 349.903 C 207.363 350.835,206.010 352.268,205.245 353.087 C 204.479 353.906,202.986 355.471,201.926 356.565 L 199.999 358.553 198.073 356.570 C 197.013 355.480,194.201 352.522,191.823 349.997 C 189.445 347.472,185.216 342.991,182.425 340.039 C 167.702 324.468,165.503 322.120,165.455 321.918 C 165.375 321.586,168.002 317.845,169.468 316.205 C 178.100 306.547,190.988 301.971,205.315 303.476 " stroke="none" fill="#444444" fill-rule="evenodd"></path></g></svg>