<svg id="svg" version="1.1" xmlns="http://www.w3.org/2000/svg" xmlns:xlink="http://www.w3.org/1999/xlink" width="400" height="400" viewBox="0, 0, 400,400"><g id="svgg"><path id="path0" d="M84.248 114.798 C 76.640 116.455,72.685 121.850,72.276 131.132 C 71.727 143.601,74.360 149.215,82.237 152.370 L 84.218 153.164 104.166 153.249 L 124.114 153.335 127.688 163.431 C 129.653 168.984,133.157 178.895,135.474 185.455 C 137.790 192.015,140.407 199.411,141.289 201.891 C 145.131 212.696,149.083 223.848,150.310 227.345 C 154.271 238.639,156.998 240.295,171.625 240.286 C 182.994 240.279,185.445 239.662,188.885 235.939 C 191.235 233.397,191.467 232.737,199.816 204.933 C 204.139 190.537,207.786 178.461,207.921 178.097 C 208.109 177.587,209.917 183.273,215.831 202.973 C 225.378 234.775,224.864 233.336,227.740 236.353 C 230.879 239.646,233.633 240.281,244.800 240.282 C 261.422 240.283,261.750 240.002,268.914 219.636 C 271.843 211.311,279.006 191.068,282.606 180.945 C 282.976 179.905,284.151 176.567,285.218 173.527 C 286.285 170.487,287.472 167.149,287.856 166.109 C 288.241 165.069,290.470 158.785,292.811 152.145 C 295.151 145.505,297.974 137.549,299.083 134.465 C 303.827 121.278,301.969 115.881,292.245 114.601 C 288.394 114.095,267.159 114.399,265.116 114.990 C 259.126 116.723,257.216 119.355,254.302 129.891 C 253.328 133.411,250.827 142.444,248.742 149.964 C 246.658 157.484,243.877 167.530,242.562 172.289 C 241.247 177.048,240.083 180.844,239.976 180.725 C 239.869 180.606,238.051 174.684,235.937 167.564 C 233.822 160.444,230.726 150.036,229.057 144.436 C 227.387 138.836,225.553 132.684,224.981 130.764 C 221.672 119.657,214.690 115.770,202.550 118.278 C 195.619 119.710,194.239 121.752,189.397 137.745 C 187.604 143.665,185.240 151.455,184.143 155.055 C 183.046 158.655,180.890 165.789,179.351 170.909 C 176.106 181.707,176.312 181.063,176.156 180.907 C 176.043 180.794,173.992 173.450,166.217 145.309 C 164.538 139.229,162.721 132.684,162.180 130.764 C 161.639 128.844,160.923 126.246,160.589 124.992 C 159.083 119.328,156.096 116.233,150.836 114.889 C 148.479 114.286,86.983 114.203,84.248 114.798 M169.092 250.307 C 155.094 252.967,149.925 270.236,160.117 280.291 C 171.342 291.365,190.208 283.425,190.249 267.610 C 190.278 256.694,179.947 248.245,169.092 250.307 M242.764 250.075 C 228.250 252.315,222.307 269.953,232.598 280.243 C 243.288 290.933,261.757 284.063,262.899 268.971 C 263.722 258.082,253.435 248.428,242.764 250.075 " stroke="none" fill="#db2374" fill-rule="evenodd"></path><path id="path1" d="M0.000 200.000 L 0.000 400.000 200.000 400.000 L 400.000 400.000 400.000 200.000 L 400.000 0.000 200.000 0.000 L 0.000 0.000 0.000 200.000 M150.836 114.889 C 156.096 116.233,159.083 119.328,160.589 124.992 C 160.923 126.246,161.639 128.844,162.180 130.764 C 162.721 132.684,164.538 139.229,166.217 145.309 C 173.992 173.450,176.043 180.794,176.156 180.907 C 176.312 181.063,176.106 181.707,179.351 170.909 C 180.890 165.789,183.046 158.655,184.143 155.055 C 185.240 151.455,187.604 143.665,189.397 137.745 C 194.239 121.752,195.619 119.710,202.550 118.278 C 214.690 115.770,221.672 119.657,224.981 130.764 C 225.553 132.684,227.387 138.836,229.057 144.436 C 230.726 150.036,233.822 160.444,235.937 167.564 C 238.051 174.684,239.869 180.606,239.976 180.725 C 240.083 180.844,241.247 177.048,242.562 172.289 C 243.877 167.530,246.658 157.484,248.742 149.964 C 250.827 142.444,253.328 133.411,254.302 129.891 C 257.216 119.355,259.126 116.723,265.116 114.990 C 267.159 114.399,288.394 114.095,292.245 114.601 C 301.969 115.881,303.827 121.278,299.083 134.465 C 297.974 137.549,295.151 145.505,292.811 152.145 C 290.470 158.785,288.241 165.069,287.856 166.109 C 287.472 167.149,286.285 170.487,285.218 173.527 C 284.151 176.567,282.976 179.905,282.606 180.945 C 279.006 191.068,271.843 211.311,268.914 219.636 C 261.750 240.002,261.422 240.283,244.800 240.282 C 233.633 240.281,230.879 239.646,227.740 236.353 C 224.864 233.336,225.378 234.775,215.831 202.973 C 209.917 183.273,208.109 177.587,207.921 178.097 C 207.786 178.461,204.139 190.537,199.816 204.933 C 191.467 232.737,191.235 233.397,188.885 235.939 C 185.445 239.662,182.994 240.279,171.625 240.286 C 156.998 240.295,154.271 238.639,150.310 227.345 C 149.083 223.848,145.131 212.696,141.289 201.891 C 140.407 199.411,137.790 192.015,135.474 185.455 C 133.157 178.895,129.653 168.984,127.688 163.431 L 124.114 153.335 104.166 153.249 L 84.218 153.164 82.237 152.370 C 74.360 149.215,71.727 143.601,72.276 131.132 C 72.685 121.850,76.640 116.455,84.248 114.798 C 86.983 114.203,148.479 114.286,150.836 114.889 M177.261 250.641 C 184.618 252.538,190.270 259.921,190.249 267.610 C 190.208 283.425,171.342 291.365,160.117 280.291 C 147.089 267.438,159.456 246.050,177.261 250.641 M250.327 250.771 C 263.480 254.785,267.224 271.667,257.018 280.936 C 248.953 288.261,235.454 286.274,229.994 276.958 C 221.737 262.869,234.808 246.034,250.327 250.771 " stroke="none" fill="#fbcc43" fill-rule="evenodd"></path></g></svg>